<svg width="1440" height="767" viewBox="0 0 1440 767" fill="none" xmlns="http://www.w3.org/2000/svg">
<path d="M614.568 89.1958C627.84 89.1958 639.02 78.0391 633.941 65.7772C630.866 58.3526 626.358 51.6064 620.675 45.9238C614.993 40.2413 608.247 35.7336 600.822 32.6583C588.56 27.5792 577.403 38.7592 577.403 52.0314L577.403 64.0155C577.403 77.9222 588.677 89.1958 602.584 89.1958H614.568Z" fill="#FFB4B0"/>
<path d="M622.706 76.5269C625.099 82.305 623.676 87.8001 620.058 91.894C616.42 96.011 610.559 98.7011 604.164 98.7011H592.18C578.771 98.7011 567.9 87.8304 567.9 74.4208L567.9 62.4367C567.9 56.0426 570.59 50.1808 574.707 46.5428C578.801 42.9251 584.296 41.5016 590.074 43.895C597.39 46.9252 604.037 51.3665 609.636 56.9655C615.235 62.5645 619.676 69.2115 622.706 76.5269Z" stroke="#FFB4B0" stroke-width="1.8"/>
<rect x="754.199" y="702.537" width="52.4495" height="158.002" rx="26.2247" transform="rotate(-30 754.199 702.537)" stroke="#EC614B" stroke-width="2.14662"/>
<rect x="718.174" y="696.88" width="54.5961" height="160.148" rx="27.298" transform="rotate(-30 718.174 696.88)" fill="#EC614B"/>
<path d="M91.358 201.739C90.4546 208.6 86.0516 213.078 80.3181 215C74.5507 216.934 67.4381 216.268 61.3035 212.727L-10.1417 171.478C-16.2763 167.936 -20.4085 162.109 -21.6177 156.147C-22.8198 150.221 -21.1436 144.169 -15.6531 139.956C-8.68591 134.61 -0.733974 130.688 7.74871 128.415C16.2314 126.142 25.0787 125.563 33.7855 126.709C42.4923 127.855 50.8881 130.705 58.4934 135.096C66.0988 139.487 72.7648 145.333 78.1109 152.3C83.457 159.267 87.3785 167.219 89.6514 175.702C91.9243 184.185 92.5042 193.032 91.358 201.739Z" fill="#FFC703" stroke="#FFC703" stroke-width="2.09644"/>
<path d="M53.6752 201.263C52.7969 207.934 48.5283 212.281 42.9396 214.155C37.3024 216.045 30.3239 215.399 24.2946 211.918L-47.1507 170.67C-53.18 167.188 -57.2279 161.467 -58.4098 155.641C-59.5816 149.864 -57.9514 143.994 -52.6129 139.897C-45.6928 134.587 -37.7946 130.692 -29.3692 128.435C-20.9438 126.177 -12.1563 125.601 -3.50833 126.74C5.13964 127.878 13.4787 130.709 21.0327 135.07C28.5867 139.432 35.2077 145.238 40.5176 152.158C45.8276 159.078 49.7226 166.977 51.9802 175.402C54.2377 183.827 54.8137 192.615 53.6752 201.263Z" stroke="#FFC703" stroke-width="3"/>
<ellipse cx="169.232" cy="676.148" rx="48.2558" ry="48.2558" transform="rotate(27.9132 169.232 676.148)" fill="#016DA6"/>
<path d="M252.84 668.697C240.672 691.665 212.188 700.421 189.219 688.253C166.25 676.085 157.495 647.601 169.663 624.632C181.831 601.663 210.315 592.908 233.283 605.076C256.252 617.244 265.008 645.728 252.84 668.697Z" stroke="#016DA6" stroke-width="2.38346"/>
<circle cx="902" cy="422" r="42" fill="#6CAACB"/>
<path d="M169.581 448.439V430.985H175.683C176.899 430.985 177.902 431.195 178.692 431.616C179.482 432.03 180.07 432.59 180.456 433.295C180.842 433.993 181.036 434.769 181.036 435.621C181.036 436.371 180.902 436.991 180.635 437.479C180.374 437.968 180.027 438.354 179.595 438.638C179.169 438.922 178.706 439.133 178.206 439.269V439.439C178.74 439.474 179.277 439.661 179.817 440.002C180.357 440.343 180.808 440.831 181.172 441.468C181.536 442.104 181.717 442.883 181.717 443.803C181.717 444.678 181.518 445.465 181.121 446.164C180.723 446.863 180.095 447.417 179.237 447.826C178.379 448.235 177.263 448.439 175.888 448.439H169.581ZM171.695 446.564H175.888C177.268 446.564 178.249 446.297 178.828 445.763C179.413 445.224 179.706 444.57 179.706 443.803C179.706 443.212 179.555 442.667 179.254 442.167C178.953 441.661 178.524 441.258 177.967 440.956C177.411 440.65 176.751 440.496 175.99 440.496H171.695V446.564ZM171.695 438.655H175.615C176.251 438.655 176.825 438.53 177.337 438.28C177.854 438.03 178.263 437.678 178.564 437.224C178.871 436.769 179.024 436.235 179.024 435.621C179.024 434.854 178.757 434.204 178.223 433.67C177.689 433.13 176.842 432.86 175.683 432.86H171.695V438.655ZM190.886 448.712C189.625 448.712 188.537 448.434 187.622 447.877C186.713 447.314 186.011 446.53 185.517 445.525C185.028 444.513 184.784 443.337 184.784 441.996C184.784 440.655 185.028 439.474 185.517 438.451C186.011 437.422 186.699 436.621 187.579 436.047C188.466 435.468 189.5 435.178 190.682 435.178C191.364 435.178 192.037 435.292 192.702 435.519C193.366 435.746 193.971 436.116 194.517 436.627C195.062 437.133 195.497 437.803 195.821 438.638C196.145 439.474 196.307 440.502 196.307 441.724V442.576H186.216V440.837H194.261C194.261 440.099 194.114 439.439 193.818 438.86C193.528 438.28 193.114 437.823 192.574 437.488C192.04 437.153 191.409 436.985 190.682 436.985C189.881 436.985 189.187 437.184 188.602 437.581C188.023 437.974 187.577 438.485 187.264 439.116C186.952 439.746 186.795 440.422 186.795 441.144V442.303C186.795 443.292 186.966 444.13 187.307 444.817C187.653 445.499 188.133 446.019 188.747 446.377C189.361 446.729 190.074 446.905 190.886 446.905C191.415 446.905 191.892 446.831 192.318 446.684C192.75 446.53 193.122 446.303 193.435 446.002C193.747 445.695 193.989 445.314 194.159 444.86L196.102 445.405C195.898 446.064 195.554 446.644 195.071 447.144C194.588 447.638 193.991 448.025 193.281 448.303C192.571 448.576 191.773 448.712 190.886 448.712ZM203.699 448.746C202.869 448.746 202.116 448.59 201.44 448.278C200.764 447.959 200.227 447.502 199.829 446.905C199.432 446.303 199.233 445.576 199.233 444.724C199.233 443.974 199.38 443.366 199.676 442.9C199.971 442.428 200.366 442.059 200.861 441.792C201.355 441.525 201.9 441.326 202.497 441.195C203.099 441.059 203.704 440.951 204.312 440.871C205.108 440.769 205.753 440.692 206.247 440.641C206.747 440.584 207.111 440.491 207.338 440.36C207.571 440.229 207.687 440.002 207.687 439.678V439.61C207.687 438.769 207.457 438.116 206.997 437.65C206.542 437.184 205.852 436.951 204.926 436.951C203.966 436.951 203.213 437.161 202.667 437.581C202.122 438.002 201.738 438.451 201.517 438.928L199.608 438.246C199.949 437.451 200.403 436.831 200.971 436.388C201.545 435.939 202.17 435.627 202.846 435.451C203.528 435.269 204.199 435.178 204.858 435.178C205.278 435.178 205.761 435.229 206.307 435.331C206.858 435.428 207.389 435.63 207.9 435.937C208.417 436.243 208.846 436.706 209.187 437.326C209.528 437.945 209.699 438.775 209.699 439.814V448.439H207.687V446.667H207.585C207.449 446.951 207.221 447.255 206.903 447.579C206.585 447.903 206.162 448.178 205.633 448.405C205.105 448.633 204.46 448.746 203.699 448.746ZM204.005 446.939C204.801 446.939 205.471 446.783 206.017 446.471C206.568 446.158 206.983 445.755 207.261 445.26C207.545 444.766 207.687 444.246 207.687 443.701V441.86C207.602 441.962 207.415 442.056 207.125 442.141C206.841 442.221 206.511 442.292 206.136 442.354C205.767 442.411 205.406 442.462 205.054 442.508C204.707 442.547 204.426 442.581 204.21 442.61C203.687 442.678 203.199 442.789 202.744 442.942C202.295 443.09 201.932 443.314 201.653 443.616C201.38 443.911 201.244 444.314 201.244 444.826C201.244 445.525 201.503 446.053 202.02 446.411C202.542 446.763 203.204 446.939 204.005 446.939ZM219.543 435.349V437.053H212.759V435.349H219.543ZM214.736 432.212H216.748V444.689C216.748 445.258 216.83 445.684 216.995 445.968C217.165 446.246 217.381 446.434 217.642 446.53C217.909 446.621 218.191 446.667 218.486 446.667C218.708 446.667 218.89 446.655 219.032 446.633C219.174 446.604 219.287 446.581 219.373 446.564L219.782 448.371C219.645 448.422 219.455 448.474 219.211 448.525C218.966 448.581 218.657 448.61 218.282 448.61C217.713 448.61 217.157 448.488 216.611 448.243C216.071 447.999 215.623 447.627 215.265 447.127C214.912 446.627 214.736 445.996 214.736 445.235V432.212ZM235.972 435.349V437.053H229.188V435.349H235.972ZM231.165 432.212H233.176V444.689C233.176 445.258 233.259 445.684 233.423 445.968C233.594 446.246 233.81 446.434 234.071 446.53C234.338 446.621 234.619 446.667 234.915 446.667C235.137 446.667 235.318 446.655 235.46 446.633C235.602 446.604 235.716 446.581 235.801 446.564L236.21 448.371C236.074 448.422 235.884 448.474 235.639 448.525C235.395 448.581 235.085 448.61 234.71 448.61C234.142 448.61 233.585 448.488 233.04 448.243C232.5 447.999 232.051 447.627 231.693 447.127C231.341 446.627 231.165 445.996 231.165 445.235V432.212ZM241.77 440.564V448.439H239.759V430.985H241.77V437.394H241.94C242.247 436.718 242.707 436.181 243.321 435.783C243.94 435.38 244.764 435.178 245.793 435.178C246.685 435.178 247.466 435.357 248.136 435.715C248.807 436.067 249.327 436.61 249.696 437.343C250.071 438.07 250.259 438.996 250.259 440.121V448.439H248.247V440.258C248.247 439.218 247.977 438.414 247.438 437.846C246.903 437.272 246.162 436.985 245.213 436.985C244.554 436.985 243.963 437.124 243.44 437.403C242.923 437.681 242.514 438.087 242.213 438.621C241.918 439.155 241.77 439.803 241.77 440.564ZM259.907 448.712C258.646 448.712 257.557 448.434 256.643 447.877C255.734 447.314 255.032 446.53 254.538 445.525C254.049 444.513 253.805 443.337 253.805 441.996C253.805 440.655 254.049 439.474 254.538 438.451C255.032 437.422 255.719 436.621 256.6 436.047C257.486 435.468 258.521 435.178 259.702 435.178C260.384 435.178 261.057 435.292 261.722 435.519C262.387 435.746 262.992 436.116 263.538 436.627C264.083 437.133 264.518 437.803 264.842 438.638C265.165 439.474 265.327 440.502 265.327 441.724V442.576H255.236V440.837H263.282C263.282 440.099 263.134 439.439 262.839 438.86C262.549 438.28 262.134 437.823 261.594 437.488C261.06 437.153 260.43 436.985 259.702 436.985C258.901 436.985 258.208 437.184 257.623 437.581C257.043 437.974 256.597 438.485 256.285 439.116C255.972 439.746 255.816 440.422 255.816 441.144V442.303C255.816 443.292 255.986 444.13 256.327 444.817C256.674 445.499 257.154 446.019 257.768 446.377C258.381 446.729 259.094 446.905 259.907 446.905C260.435 446.905 260.913 446.831 261.339 446.684C261.771 446.53 262.143 446.303 262.455 446.002C262.768 445.695 263.009 445.314 263.18 444.86L265.123 445.405C264.918 446.064 264.575 446.644 264.092 447.144C263.609 447.638 263.012 448.025 262.302 448.303C261.592 448.576 260.793 448.712 259.907 448.712ZM276.097 453.349V435.349H278.04V437.428H278.279C278.427 437.201 278.631 436.911 278.892 436.559C279.16 436.201 279.54 435.883 280.035 435.604C280.535 435.32 281.211 435.178 282.063 435.178C283.165 435.178 284.137 435.454 284.978 436.005C285.819 436.556 286.475 437.337 286.946 438.349C287.418 439.36 287.654 440.553 287.654 441.928C287.654 443.314 287.418 444.516 286.946 445.533C286.475 446.545 285.821 447.329 284.986 447.885C284.151 448.437 283.188 448.712 282.097 448.712C281.256 448.712 280.583 448.573 280.077 448.295C279.571 448.01 279.182 447.689 278.91 447.331C278.637 446.968 278.427 446.667 278.279 446.428H278.108V453.349H276.097ZM278.074 441.894C278.074 442.883 278.219 443.755 278.509 444.51C278.799 445.26 279.222 445.849 279.779 446.275C280.336 446.695 281.017 446.905 281.824 446.905C282.665 446.905 283.367 446.684 283.929 446.241C284.498 445.792 284.924 445.189 285.208 444.434C285.498 443.672 285.642 442.826 285.642 441.894C285.642 440.974 285.5 440.144 285.216 439.405C284.938 438.661 284.515 438.073 283.946 437.641C283.384 437.204 282.677 436.985 281.824 436.985C281.006 436.985 280.319 437.192 279.762 437.607C279.205 438.016 278.785 438.59 278.5 439.329C278.216 440.062 278.074 440.917 278.074 441.894ZM291.202 448.439V435.349H293.145V437.326H293.282C293.52 436.678 293.952 436.153 294.577 435.749C295.202 435.346 295.907 435.144 296.691 435.144C296.838 435.144 297.023 435.147 297.245 435.153C297.466 435.158 297.634 435.167 297.747 435.178V437.224C297.679 437.206 297.523 437.181 297.279 437.147C297.04 437.107 296.787 437.087 296.52 437.087C295.884 437.087 295.316 437.221 294.816 437.488C294.321 437.749 293.929 438.113 293.64 438.579C293.355 439.039 293.213 439.564 293.213 440.155V448.439H291.202ZM305.531 448.712C304.35 448.712 303.313 448.431 302.421 447.868C301.534 447.306 300.841 446.519 300.341 445.508C299.847 444.496 299.6 443.314 299.6 441.962C299.6 440.599 299.847 439.408 300.341 438.391C300.841 437.374 301.534 436.584 302.421 436.022C303.313 435.459 304.35 435.178 305.531 435.178C306.713 435.178 307.747 435.459 308.634 436.022C309.526 436.584 310.219 437.374 310.713 438.391C311.213 439.408 311.463 440.599 311.463 441.962C311.463 443.314 311.213 444.496 310.713 445.508C310.219 446.519 309.526 447.306 308.634 447.868C307.747 448.431 306.713 448.712 305.531 448.712ZM305.531 446.905C306.429 446.905 307.168 446.675 307.747 446.215C308.327 445.755 308.756 445.15 309.034 444.4C309.313 443.65 309.452 442.837 309.452 441.962C309.452 441.087 309.313 440.272 309.034 439.516C308.756 438.76 308.327 438.15 307.747 437.684C307.168 437.218 306.429 436.985 305.531 436.985C304.634 436.985 303.895 437.218 303.316 437.684C302.736 438.15 302.307 438.76 302.029 439.516C301.75 440.272 301.611 441.087 301.611 441.962C301.611 442.837 301.75 443.65 302.029 444.4C302.307 445.15 302.736 445.755 303.316 446.215C303.895 446.675 304.634 446.905 305.531 446.905ZM324.286 438.28L322.479 438.792C322.366 438.491 322.198 438.198 321.977 437.914C321.761 437.624 321.465 437.385 321.09 437.198C320.715 437.01 320.235 436.917 319.65 436.917C318.849 436.917 318.181 437.101 317.647 437.471C317.119 437.834 316.854 438.297 316.854 438.86C316.854 439.36 317.036 439.755 317.4 440.045C317.764 440.334 318.332 440.576 319.104 440.769L321.048 441.246C322.218 441.53 323.09 441.965 323.664 442.55C324.238 443.13 324.525 443.877 324.525 444.792C324.525 445.542 324.309 446.212 323.877 446.803C323.451 447.394 322.854 447.86 322.087 448.201C321.32 448.542 320.428 448.712 319.411 448.712C318.076 448.712 316.971 448.422 316.096 447.843C315.221 447.263 314.667 446.417 314.434 445.303L316.343 444.826C316.525 445.53 316.869 446.059 317.374 446.411C317.886 446.763 318.553 446.939 319.377 446.939C320.315 446.939 321.059 446.741 321.61 446.343C322.167 445.939 322.445 445.456 322.445 444.894C322.445 444.439 322.286 444.059 321.968 443.752C321.65 443.439 321.161 443.206 320.502 443.053L318.32 442.542C317.122 442.258 316.241 441.817 315.678 441.221C315.122 440.618 314.843 439.866 314.843 438.962C314.843 438.224 315.05 437.57 315.465 437.002C315.886 436.434 316.457 435.988 317.178 435.664C317.906 435.34 318.729 435.178 319.65 435.178C320.945 435.178 321.962 435.462 322.701 436.03C323.445 436.599 323.974 437.349 324.286 438.28ZM328.033 453.349V435.349H329.976V437.428H330.214C330.362 437.201 330.567 436.911 330.828 436.559C331.095 436.201 331.476 435.883 331.97 435.604C332.47 435.32 333.146 435.178 333.999 435.178C335.101 435.178 336.072 435.454 336.913 436.005C337.754 436.556 338.41 437.337 338.882 438.349C339.354 439.36 339.589 440.553 339.589 441.928C339.589 443.314 339.354 444.516 338.882 445.533C338.41 446.545 337.757 447.329 336.922 447.885C336.087 448.437 335.124 448.712 334.033 448.712C333.192 448.712 332.518 448.573 332.013 448.295C331.507 448.01 331.118 447.689 330.845 447.331C330.572 446.968 330.362 446.667 330.214 446.428H330.044V453.349H328.033ZM330.01 441.894C330.01 442.883 330.155 443.755 330.445 444.51C330.734 445.26 331.158 445.849 331.714 446.275C332.271 446.695 332.953 446.905 333.76 446.905C334.601 446.905 335.303 446.684 335.865 446.241C336.433 445.792 336.859 445.189 337.143 444.434C337.433 443.672 337.578 442.826 337.578 441.894C337.578 440.974 337.436 440.144 337.152 439.405C336.874 438.661 336.45 438.073 335.882 437.641C335.32 437.204 334.612 436.985 333.76 436.985C332.942 436.985 332.254 437.192 331.697 437.607C331.141 438.016 330.72 438.59 330.436 439.329C330.152 440.062 330.01 440.917 330.01 441.894ZM348.626 448.712C347.365 448.712 346.277 448.434 345.362 447.877C344.453 447.314 343.751 446.53 343.257 445.525C342.768 444.513 342.524 443.337 342.524 441.996C342.524 440.655 342.768 439.474 343.257 438.451C343.751 437.422 344.439 436.621 345.319 436.047C346.206 435.468 347.24 435.178 348.422 435.178C349.104 435.178 349.777 435.292 350.442 435.519C351.106 435.746 351.711 436.116 352.257 436.627C352.802 437.133 353.237 437.803 353.561 438.638C353.885 439.474 354.047 440.502 354.047 441.724V442.576H343.956V440.837H352.001C352.001 440.099 351.854 439.439 351.558 438.86C351.268 438.28 350.854 437.823 350.314 437.488C349.78 437.153 349.149 436.985 348.422 436.985C347.621 436.985 346.927 437.184 346.342 437.581C345.763 437.974 345.317 438.485 345.004 439.116C344.692 439.746 344.535 440.422 344.535 441.144V442.303C344.535 443.292 344.706 444.13 345.047 444.817C345.393 445.499 345.873 446.019 346.487 446.377C347.101 446.729 347.814 446.905 348.626 446.905C349.155 446.905 349.632 446.831 350.058 446.684C350.49 446.53 350.862 446.303 351.175 446.002C351.487 445.695 351.729 445.314 351.899 444.86L353.842 445.405C353.638 446.064 353.294 446.644 352.811 447.144C352.328 447.638 351.731 448.025 351.021 448.303C350.311 448.576 349.513 448.712 348.626 448.712ZM362.905 448.712C361.677 448.712 360.62 448.422 359.734 447.843C358.848 447.263 358.166 446.465 357.689 445.448C357.211 444.431 356.973 443.269 356.973 441.962C356.973 440.633 357.217 439.459 357.706 438.442C358.2 437.42 358.888 436.621 359.768 436.047C360.655 435.468 361.689 435.178 362.87 435.178C363.791 435.178 364.62 435.349 365.359 435.689C366.098 436.03 366.703 436.508 367.174 437.121C367.646 437.735 367.939 438.451 368.052 439.269H366.041C365.888 438.672 365.547 438.144 365.018 437.684C364.495 437.218 363.791 436.985 362.905 436.985C362.12 436.985 361.433 437.189 360.842 437.599C360.257 438.002 359.799 438.573 359.47 439.312C359.146 440.045 358.984 440.905 358.984 441.894C358.984 442.905 359.143 443.786 359.461 444.536C359.785 445.286 360.24 445.868 360.825 446.283C361.416 446.698 362.109 446.905 362.905 446.905C363.427 446.905 363.902 446.814 364.328 446.633C364.754 446.451 365.115 446.189 365.41 445.849C365.706 445.508 365.916 445.099 366.041 444.621H368.052C367.939 445.394 367.657 446.09 367.209 446.709C366.765 447.323 366.177 447.812 365.444 448.175C364.717 448.533 363.87 448.712 362.905 448.712ZM377.166 435.349V437.053H370.382V435.349H377.166ZM372.359 432.212H374.37V444.689C374.37 445.258 374.453 445.684 374.618 445.968C374.788 446.246 375.004 446.434 375.265 446.53C375.532 446.621 375.814 446.667 376.109 446.667C376.331 446.667 376.512 446.655 376.654 446.633C376.796 446.604 376.91 446.581 376.995 446.564L377.404 448.371C377.268 448.422 377.078 448.474 376.833 448.525C376.589 448.581 376.279 448.61 375.904 448.61C375.336 448.61 374.779 448.488 374.234 448.243C373.694 447.999 373.245 447.627 372.887 447.127C372.535 446.627 372.359 445.996 372.359 445.235V432.212ZM380.671 448.439V435.349H382.683V448.439H380.671ZM381.694 433.167C381.302 433.167 380.964 433.033 380.68 432.766C380.401 432.499 380.262 432.178 380.262 431.803C380.262 431.428 380.401 431.107 380.68 430.84C380.964 430.573 381.302 430.439 381.694 430.439C382.086 430.439 382.421 430.573 382.7 430.84C382.984 431.107 383.126 431.428 383.126 431.803C383.126 432.178 382.984 432.499 382.7 432.766C382.421 433.033 382.086 433.167 381.694 433.167ZM388.858 440.564V448.439H386.847V435.349H388.79V437.394H388.96C389.267 436.729 389.733 436.195 390.358 435.792C390.983 435.383 391.79 435.178 392.779 435.178C393.665 435.178 394.44 435.36 395.105 435.724C395.77 436.081 396.287 436.627 396.656 437.36C397.026 438.087 397.21 439.008 397.21 440.121V448.439H395.199V440.258C395.199 439.229 394.932 438.428 394.398 437.854C393.864 437.275 393.131 436.985 392.199 436.985C391.557 436.985 390.983 437.124 390.477 437.403C389.977 437.681 389.582 438.087 389.293 438.621C389.003 439.155 388.858 439.803 388.858 440.564ZM406.65 453.621C405.678 453.621 404.843 453.496 404.144 453.246C403.445 453.002 402.863 452.678 402.397 452.275C401.937 451.877 401.57 451.451 401.298 450.996L402.9 449.871C403.082 450.11 403.312 450.383 403.59 450.689C403.869 451.002 404.249 451.272 404.732 451.499C405.221 451.732 405.86 451.849 406.65 451.849C407.707 451.849 408.579 451.593 409.266 451.081C409.954 450.57 410.298 449.769 410.298 448.678V446.019H410.127C409.979 446.258 409.769 446.553 409.496 446.905C409.229 447.252 408.843 447.562 408.337 447.834C407.837 448.101 407.161 448.235 406.309 448.235C405.252 448.235 404.303 447.985 403.462 447.485C402.627 446.985 401.965 446.258 401.477 445.303C400.994 444.349 400.752 443.189 400.752 441.826C400.752 440.485 400.988 439.317 401.46 438.323C401.931 437.323 402.587 436.55 403.428 436.005C404.269 435.454 405.241 435.178 406.343 435.178C407.195 435.178 407.871 435.32 408.371 435.604C408.877 435.883 409.263 436.201 409.531 436.559C409.803 436.911 410.013 437.201 410.161 437.428H410.366V435.349H412.309V448.814C412.309 449.939 412.053 450.854 411.542 451.559C411.036 452.269 410.354 452.789 409.496 453.118C408.644 453.454 407.695 453.621 406.65 453.621ZM406.582 446.428C407.388 446.428 408.07 446.243 408.627 445.874C409.184 445.505 409.607 444.974 409.897 444.28C410.187 443.587 410.332 442.758 410.332 441.792C410.332 440.849 410.19 440.016 409.906 439.295C409.621 438.573 409.201 438.008 408.644 437.599C408.087 437.189 407.4 436.985 406.582 436.985C405.729 436.985 405.019 437.201 404.451 437.633C403.888 438.064 403.465 438.644 403.181 439.371C402.903 440.099 402.763 440.905 402.763 441.792C402.763 442.701 402.906 443.505 403.19 444.204C403.479 444.897 403.906 445.442 404.468 445.84C405.036 446.232 405.741 446.428 406.582 446.428ZM423.973 448.439V430.985H425.985V437.428H426.155C426.303 437.201 426.508 436.911 426.769 436.559C427.036 436.201 427.417 435.883 427.911 435.604C428.411 435.32 429.087 435.178 429.939 435.178C431.042 435.178 432.013 435.454 432.854 436.005C433.695 436.556 434.351 437.337 434.823 438.349C435.295 439.36 435.53 440.553 435.53 441.928C435.53 443.314 435.295 444.516 434.823 445.533C434.351 446.545 433.698 447.329 432.863 447.885C432.027 448.437 431.064 448.712 429.973 448.712C429.133 448.712 428.459 448.573 427.954 448.295C427.448 448.01 427.059 447.689 426.786 447.331C426.513 446.968 426.303 446.667 426.155 446.428H425.917V448.439H423.973ZM425.951 441.894C425.951 442.883 426.096 443.755 426.385 444.51C426.675 445.26 427.098 445.849 427.655 446.275C428.212 446.695 428.894 446.905 429.701 446.905C430.542 446.905 431.243 446.684 431.806 446.241C432.374 445.792 432.8 445.189 433.084 444.434C433.374 443.672 433.519 442.826 433.519 441.894C433.519 440.974 433.377 440.144 433.093 439.405C432.814 438.661 432.391 438.073 431.823 437.641C431.26 437.204 430.553 436.985 429.701 436.985C428.883 436.985 428.195 437.192 427.638 437.607C427.081 438.016 426.661 438.59 426.377 439.329C426.093 440.062 425.951 440.917 425.951 441.894ZM441.098 430.985V448.439H439.087V430.985H441.098ZM453.512 443.087V435.349H455.524V448.439H453.512V446.224H453.376C453.069 446.888 452.592 447.454 451.944 447.92C451.296 448.38 450.478 448.61 449.49 448.61C448.671 448.61 447.944 448.431 447.308 448.073C446.671 447.709 446.171 447.164 445.808 446.437C445.444 445.704 445.262 444.78 445.262 443.667V435.349H447.274V443.53C447.274 444.485 447.541 445.246 448.075 445.814C448.615 446.383 449.302 446.667 450.137 446.667C450.637 446.667 451.146 446.539 451.663 446.283C452.186 446.028 452.623 445.635 452.975 445.107C453.333 444.579 453.512 443.905 453.512 443.087ZM465.176 448.712C463.915 448.712 462.827 448.434 461.912 447.877C461.003 447.314 460.301 446.53 459.807 445.525C459.318 444.513 459.074 443.337 459.074 441.996C459.074 440.655 459.318 439.474 459.807 438.451C460.301 437.422 460.989 436.621 461.869 436.047C462.756 435.468 463.79 435.178 464.972 435.178C465.654 435.178 466.327 435.292 466.992 435.519C467.656 435.746 468.261 436.116 468.807 436.627C469.352 437.133 469.787 437.803 470.111 438.638C470.435 439.474 470.597 440.502 470.597 441.724V442.576H460.506V440.837H468.551C468.551 440.099 468.404 439.439 468.108 438.86C467.818 438.28 467.404 437.823 466.864 437.488C466.33 437.153 465.699 436.985 464.972 436.985C464.171 436.985 463.477 437.184 462.892 437.581C462.313 437.974 461.867 438.485 461.554 439.116C461.242 439.746 461.085 440.422 461.085 441.144V442.303C461.085 443.292 461.256 444.13 461.597 444.817C461.943 445.499 462.423 446.019 463.037 446.377C463.651 446.729 464.364 446.905 465.176 446.905C465.705 446.905 466.182 446.831 466.608 446.684C467.04 446.53 467.412 446.303 467.725 446.002C468.037 445.695 468.279 445.314 468.449 444.86L470.392 445.405C470.188 446.064 469.844 446.644 469.361 447.144C468.878 447.638 468.281 448.025 467.571 448.303C466.861 448.576 466.063 448.712 465.176 448.712ZM483.409 438.28L481.602 438.792C481.489 438.491 481.321 438.198 481.099 437.914C480.884 437.624 480.588 437.385 480.213 437.198C479.838 437.01 479.358 436.917 478.773 436.917C477.972 436.917 477.304 437.101 476.77 437.471C476.241 437.834 475.977 438.297 475.977 438.86C475.977 439.36 476.159 439.755 476.523 440.045C476.886 440.334 477.455 440.576 478.227 440.769L480.17 441.246C481.341 441.53 482.213 441.965 482.787 442.55C483.361 443.13 483.648 443.877 483.648 444.792C483.648 445.542 483.432 446.212 483 446.803C482.574 447.394 481.977 447.86 481.21 448.201C480.443 448.542 479.551 448.712 478.534 448.712C477.199 448.712 476.094 448.422 475.219 447.843C474.344 447.263 473.79 446.417 473.557 445.303L475.466 444.826C475.648 445.53 475.991 446.059 476.497 446.411C477.009 446.763 477.676 446.939 478.5 446.939C479.438 446.939 480.182 446.741 480.733 446.343C481.29 445.939 481.568 445.456 481.568 444.894C481.568 444.439 481.409 444.059 481.091 443.752C480.773 443.439 480.284 443.206 479.625 443.053L477.443 442.542C476.244 442.258 475.364 441.817 474.801 441.221C474.244 440.618 473.966 439.866 473.966 438.962C473.966 438.224 474.173 437.57 474.588 437.002C475.009 436.434 475.58 435.988 476.301 435.664C477.028 435.34 477.852 435.178 478.773 435.178C480.068 435.178 481.085 435.462 481.824 436.03C482.568 436.599 483.097 437.349 483.409 438.28ZM497.351 448.439L493.363 435.349H495.476L498.306 445.371H498.442L501.238 435.349H503.385L506.147 445.337H506.283L509.113 435.349H511.226L507.238 448.439H505.26L502.397 438.383H502.192L499.329 448.439H497.351ZM514.365 448.439V435.349H516.377V448.439H514.365ZM515.388 433.167C514.996 433.167 514.658 433.033 514.374 432.766C514.096 432.499 513.956 432.178 513.956 431.803C513.956 431.428 514.096 431.107 514.374 430.84C514.658 430.573 514.996 430.439 515.388 430.439C515.78 430.439 516.115 430.573 516.394 430.84C516.678 431.107 516.82 431.428 516.82 431.803C516.82 432.178 516.678 432.499 516.394 432.766C516.115 433.033 515.78 433.167 515.388 433.167ZM526.234 435.349V437.053H519.45V435.349H526.234ZM521.427 432.212H523.438V444.689C523.438 445.258 523.521 445.684 523.686 445.968C523.856 446.246 524.072 446.434 524.333 446.53C524.6 446.621 524.882 446.667 525.177 446.667C525.399 446.667 525.581 446.655 525.723 446.633C525.865 446.604 525.978 446.581 526.063 446.564L526.473 448.371C526.336 448.422 526.146 448.474 525.902 448.525C525.657 448.581 525.348 448.61 524.973 448.61C524.404 448.61 523.848 448.488 523.302 448.243C522.762 447.999 522.313 447.627 521.956 447.127C521.603 446.627 521.427 445.996 521.427 445.235V432.212ZM532.032 440.564V448.439H530.021V430.985H532.032V437.394H532.203C532.509 436.718 532.97 436.181 533.583 435.783C534.203 435.38 535.026 435.178 536.055 435.178C536.947 435.178 537.728 435.357 538.399 435.715C539.069 436.067 539.589 436.61 539.958 437.343C540.333 438.07 540.521 438.996 540.521 440.121V448.439H538.509V440.258C538.509 439.218 538.239 438.414 537.7 437.846C537.166 437.272 536.424 436.985 535.475 436.985C534.816 436.985 534.225 437.124 533.703 437.403C533.186 437.681 532.776 438.087 532.475 438.621C532.18 439.155 532.032 439.803 532.032 440.564ZM555.763 448.746C554.933 448.746 554.18 448.59 553.504 448.278C552.828 447.959 552.291 447.502 551.893 446.905C551.496 446.303 551.297 445.576 551.297 444.724C551.297 443.974 551.445 443.366 551.74 442.9C552.035 442.428 552.43 442.059 552.925 441.792C553.419 441.525 553.964 441.326 554.561 441.195C555.163 441.059 555.768 440.951 556.376 440.871C557.172 440.769 557.817 440.692 558.311 440.641C558.811 440.584 559.175 440.491 559.402 440.36C559.635 440.229 559.751 440.002 559.751 439.678V439.61C559.751 438.769 559.521 438.116 559.061 437.65C558.606 437.184 557.916 436.951 556.99 436.951C556.03 436.951 555.277 437.161 554.731 437.581C554.186 438.002 553.802 438.451 553.581 438.928L551.672 438.246C552.013 437.451 552.467 436.831 553.035 436.388C553.609 435.939 554.234 435.627 554.91 435.451C555.592 435.269 556.263 435.178 556.922 435.178C557.342 435.178 557.825 435.229 558.371 435.331C558.922 435.428 559.453 435.63 559.964 435.937C560.481 436.243 560.91 436.706 561.251 437.326C561.592 437.945 561.763 438.775 561.763 439.814V448.439H559.751V446.667H559.649C559.513 446.951 559.285 447.255 558.967 447.579C558.649 447.903 558.226 448.178 557.697 448.405C557.169 448.633 556.524 448.746 555.763 448.746ZM556.07 446.939C556.865 446.939 557.535 446.783 558.081 446.471C558.632 446.158 559.047 445.755 559.325 445.26C559.609 444.766 559.751 444.246 559.751 443.701V441.86C559.666 441.962 559.479 442.056 559.189 442.141C558.905 442.221 558.575 442.292 558.2 442.354C557.831 442.411 557.47 442.462 557.118 442.508C556.771 442.547 556.49 442.581 556.274 442.61C555.751 442.678 555.263 442.789 554.808 442.942C554.359 443.09 553.996 443.314 553.717 443.616C553.445 443.911 553.308 444.314 553.308 444.826C553.308 445.525 553.567 446.053 554.084 446.411C554.606 446.763 555.268 446.939 556.07 446.939ZM571.232 448.712C570.005 448.712 568.948 448.422 568.062 447.843C567.175 447.263 566.493 446.465 566.016 445.448C565.539 444.431 565.3 443.269 565.3 441.962C565.3 440.633 565.545 439.459 566.033 438.442C566.528 437.42 567.215 436.621 568.096 436.047C568.982 435.468 570.016 435.178 571.198 435.178C572.118 435.178 572.948 435.349 573.687 435.689C574.425 436.03 575.03 436.508 575.502 437.121C575.974 437.735 576.266 438.451 576.38 439.269H574.368C574.215 438.672 573.874 438.144 573.346 437.684C572.823 437.218 572.118 436.985 571.232 436.985C570.448 436.985 569.76 437.189 569.17 437.599C568.584 438.002 568.127 438.573 567.797 439.312C567.474 440.045 567.312 440.905 567.312 441.894C567.312 442.905 567.471 443.786 567.789 444.536C568.113 445.286 568.567 445.868 569.153 446.283C569.743 446.698 570.437 446.905 571.232 446.905C571.755 446.905 572.229 446.814 572.655 446.633C573.081 446.451 573.442 446.189 573.738 445.849C574.033 445.508 574.243 445.099 574.368 444.621H576.38C576.266 445.394 575.985 446.09 575.536 446.709C575.093 447.323 574.505 447.812 573.772 448.175C573.045 448.533 572.198 448.712 571.232 448.712ZM585.118 448.712C583.891 448.712 582.834 448.422 581.948 447.843C581.062 447.263 580.38 446.465 579.902 445.448C579.425 444.431 579.187 443.269 579.187 441.962C579.187 440.633 579.431 439.459 579.919 438.442C580.414 437.42 581.101 436.621 581.982 436.047C582.868 435.468 583.902 435.178 585.084 435.178C586.005 435.178 586.834 435.349 587.573 435.689C588.312 436.03 588.917 436.508 589.388 437.121C589.86 437.735 590.152 438.451 590.266 439.269H588.255C588.101 438.672 587.76 438.144 587.232 437.684C586.709 437.218 586.005 436.985 585.118 436.985C584.334 436.985 583.647 437.189 583.056 437.599C582.471 438.002 582.013 438.573 581.684 439.312C581.36 440.045 581.198 440.905 581.198 441.894C581.198 442.905 581.357 443.786 581.675 444.536C581.999 445.286 582.454 445.868 583.039 446.283C583.63 446.698 584.323 446.905 585.118 446.905C585.641 446.905 586.115 446.814 586.542 446.633C586.968 446.451 587.329 446.189 587.624 445.849C587.919 445.508 588.13 445.099 588.255 444.621H590.266C590.152 445.394 589.871 446.09 589.422 446.709C588.979 447.323 588.391 447.812 587.658 448.175C586.931 448.533 586.084 448.712 585.118 448.712ZM601.936 443.087V435.349H603.948V448.439H601.936V446.224H601.8C601.493 446.888 601.016 447.454 600.368 447.92C599.72 448.38 598.902 448.61 597.914 448.61C597.095 448.61 596.368 448.431 595.732 448.073C595.095 447.709 594.595 447.164 594.232 446.437C593.868 445.704 593.686 444.78 593.686 443.667V435.349H595.698V443.53C595.698 444.485 595.965 445.246 596.499 445.814C597.039 446.383 597.726 446.667 598.561 446.667C599.061 446.667 599.57 446.539 600.087 446.283C600.61 446.028 601.047 445.635 601.399 445.107C601.757 444.579 601.936 443.905 601.936 443.087ZM608.112 448.439V435.349H610.055V437.326H610.191C610.43 436.678 610.862 436.153 611.487 435.749C612.112 435.346 612.816 435.144 613.6 435.144C613.748 435.144 613.933 435.147 614.154 435.153C614.376 435.158 614.544 435.167 614.657 435.178V437.224C614.589 437.206 614.433 437.181 614.188 437.147C613.95 437.107 613.697 437.087 613.43 437.087C612.794 437.087 612.225 437.221 611.725 437.488C611.231 437.749 610.839 438.113 610.549 438.579C610.265 439.039 610.123 439.564 610.123 440.155V448.439H608.112ZM621.374 448.746C620.544 448.746 619.791 448.59 619.115 448.278C618.439 447.959 617.902 447.502 617.504 446.905C617.107 446.303 616.908 445.576 616.908 444.724C616.908 443.974 617.055 443.366 617.351 442.9C617.646 442.428 618.041 442.059 618.536 441.792C619.03 441.525 619.575 441.326 620.172 441.195C620.774 441.059 621.379 440.951 621.987 440.871C622.783 440.769 623.428 440.692 623.922 440.641C624.422 440.584 624.786 440.491 625.013 440.36C625.246 440.229 625.362 440.002 625.362 439.678V439.61C625.362 438.769 625.132 438.116 624.672 437.65C624.217 437.184 623.527 436.951 622.601 436.951C621.641 436.951 620.888 437.161 620.342 437.581C619.797 438.002 619.413 438.451 619.192 438.928L617.283 438.246C617.624 437.451 618.078 436.831 618.646 436.388C619.22 435.939 619.845 435.627 620.521 435.451C621.203 435.269 621.874 435.178 622.533 435.178C622.953 435.178 623.436 435.229 623.982 435.331C624.533 435.428 625.064 435.63 625.575 435.937C626.092 436.243 626.521 436.706 626.862 437.326C627.203 437.945 627.374 438.775 627.374 439.814V448.439H625.362V446.667H625.26C625.124 446.951 624.896 447.255 624.578 447.579C624.26 447.903 623.837 448.178 623.308 448.405C622.78 448.633 622.135 448.746 621.374 448.746ZM621.68 446.939C622.476 446.939 623.146 446.783 623.692 446.471C624.243 446.158 624.658 445.755 624.936 445.26C625.22 444.766 625.362 444.246 625.362 443.701V441.86C625.277 441.962 625.09 442.056 624.8 442.141C624.516 442.221 624.186 442.292 623.811 442.354C623.442 442.411 623.081 442.462 622.729 442.508C622.382 442.547 622.101 442.581 621.885 442.61C621.362 442.678 620.874 442.789 620.419 442.942C619.97 443.09 619.607 443.314 619.328 443.616C619.055 443.911 618.919 444.314 618.919 444.826C618.919 445.525 619.178 446.053 619.695 446.411C620.217 446.763 620.879 446.939 621.68 446.939ZM637.218 435.349V437.053H630.434V435.349H637.218ZM632.411 432.212H634.423V444.689C634.423 445.258 634.505 445.684 634.67 445.968C634.84 446.246 635.056 446.434 635.317 446.53C635.584 446.621 635.866 446.667 636.161 446.667C636.383 446.667 636.565 446.655 636.707 446.633C636.849 446.604 636.962 446.581 637.048 446.564L637.457 448.371C637.32 448.422 637.13 448.474 636.886 448.525C636.641 448.581 636.332 448.61 635.957 448.61C635.388 448.61 634.832 448.488 634.286 448.243C633.746 447.999 633.298 447.627 632.94 447.127C632.587 446.627 632.411 445.996 632.411 445.235V432.212ZM646.072 448.712C644.81 448.712 643.722 448.434 642.807 447.877C641.898 447.314 641.197 446.53 640.702 445.525C640.214 444.513 639.969 443.337 639.969 441.996C639.969 440.655 640.214 439.474 640.702 438.451C641.197 437.422 641.884 436.621 642.765 436.047C643.651 435.468 644.685 435.178 645.867 435.178C646.549 435.178 647.222 435.292 647.887 435.519C648.552 435.746 649.157 436.116 649.702 436.627C650.248 437.133 650.682 437.803 651.006 438.638C651.33 439.474 651.492 440.502 651.492 441.724V442.576H641.401V440.837H649.447C649.447 440.099 649.299 439.439 649.003 438.86C648.714 438.28 648.299 437.823 647.759 437.488C647.225 437.153 646.594 436.985 645.867 436.985C645.066 436.985 644.373 437.184 643.787 437.581C643.208 437.974 642.762 438.485 642.449 439.116C642.137 439.746 641.981 440.422 641.981 441.144V442.303C641.981 443.292 642.151 444.13 642.492 444.817C642.839 445.499 643.319 446.019 643.932 446.377C644.546 446.729 645.259 446.905 646.072 446.905C646.6 446.905 647.077 446.831 647.503 446.684C647.935 446.53 648.307 446.303 648.62 446.002C648.932 445.695 649.174 445.314 649.344 444.86L651.287 445.405C651.083 446.064 650.739 446.644 650.256 447.144C649.773 447.638 649.177 448.025 648.466 448.303C647.756 448.576 646.958 448.712 646.072 448.712ZM667.205 448.712C666.114 448.712 665.151 448.437 664.316 447.885C663.48 447.329 662.827 446.545 662.355 445.533C661.884 444.516 661.648 443.314 661.648 441.928C661.648 440.553 661.884 439.36 662.355 438.349C662.827 437.337 663.483 436.556 664.324 436.005C665.165 435.454 666.137 435.178 667.239 435.178C668.091 435.178 668.765 435.32 669.259 435.604C669.759 435.883 670.14 436.201 670.401 436.559C670.668 436.911 670.875 437.201 671.023 437.428H671.194V430.985H673.205V448.439H671.262V446.428H671.023C670.875 446.667 670.665 446.968 670.392 447.331C670.12 447.689 669.73 448.01 669.225 448.295C668.719 448.573 668.046 448.712 667.205 448.712ZM667.478 446.905C668.284 446.905 668.966 446.695 669.523 446.275C670.08 445.849 670.503 445.26 670.793 444.51C671.083 443.755 671.228 442.883 671.228 441.894C671.228 440.917 671.086 440.062 670.801 439.329C670.517 438.59 670.097 438.016 669.54 437.607C668.983 437.192 668.296 436.985 667.478 436.985C666.625 436.985 665.915 437.204 665.347 437.641C664.784 438.073 664.361 438.661 664.077 439.405C663.799 440.144 663.659 440.974 663.659 441.894C663.659 442.826 663.801 443.672 664.086 444.434C664.375 445.189 664.801 445.792 665.364 446.241C665.932 446.684 666.637 446.905 667.478 446.905ZM681.5 448.746C680.671 448.746 679.918 448.59 679.242 448.278C678.566 447.959 678.029 447.502 677.631 446.905C677.233 446.303 677.034 445.576 677.034 444.724C677.034 443.974 677.182 443.366 677.477 442.9C677.773 442.428 678.168 442.059 678.662 441.792C679.156 441.525 679.702 441.326 680.299 441.195C680.901 441.059 681.506 440.951 682.114 440.871C682.909 440.769 683.554 440.692 684.049 440.641C684.549 440.584 684.912 440.491 685.139 440.36C685.372 440.229 685.489 440.002 685.489 439.678V439.61C685.489 438.769 685.259 438.116 684.799 437.65C684.344 437.184 683.654 436.951 682.727 436.951C681.767 436.951 681.014 437.161 680.469 437.581C679.924 438.002 679.54 438.451 679.318 438.928L677.409 438.246C677.75 437.451 678.205 436.831 678.773 436.388C679.347 435.939 679.972 435.627 680.648 435.451C681.33 435.269 682 435.178 682.659 435.178C683.08 435.178 683.563 435.229 684.108 435.331C684.659 435.428 685.191 435.63 685.702 435.937C686.219 436.243 686.648 436.706 686.989 437.326C687.33 437.945 687.5 438.775 687.5 439.814V448.439H685.489V446.667H685.387C685.25 446.951 685.023 447.255 684.705 447.579C684.387 447.903 683.963 448.178 683.435 448.405C682.906 448.633 682.262 448.746 681.5 448.746ZM681.807 446.939C682.602 446.939 683.273 446.783 683.818 446.471C684.37 446.158 684.784 445.755 685.063 445.26C685.347 444.766 685.489 444.246 685.489 443.701V441.86C685.404 441.962 685.216 442.056 684.926 442.141C684.642 442.221 684.313 442.292 683.938 442.354C683.568 442.411 683.208 442.462 682.855 442.508C682.509 442.547 682.227 442.581 682.012 442.61C681.489 442.678 681 442.789 680.546 442.942C680.097 443.09 679.733 443.314 679.455 443.616C679.182 443.911 679.046 444.314 679.046 444.826C679.046 445.525 679.304 446.053 679.821 446.411C680.344 446.763 681.006 446.939 681.807 446.939ZM697.345 435.349V437.053H690.56V435.349H697.345ZM692.538 432.212H694.549V444.689C694.549 445.258 694.632 445.684 694.796 445.968C694.967 446.246 695.183 446.434 695.444 446.53C695.711 446.621 695.992 446.667 696.288 446.667C696.509 446.667 696.691 446.655 696.833 446.633C696.975 446.604 697.089 446.581 697.174 446.564L697.583 448.371C697.447 448.422 697.257 448.474 697.012 448.525C696.768 448.581 696.458 448.61 696.083 448.61C695.515 448.61 694.958 448.488 694.413 448.243C693.873 447.999 693.424 447.627 693.066 447.127C692.714 446.627 692.538 445.996 692.538 445.235V432.212ZM704.702 448.746C703.873 448.746 703.12 448.59 702.444 448.278C701.768 447.959 701.231 447.502 700.833 446.905C700.435 446.303 700.236 445.576 700.236 444.724C700.236 443.974 700.384 443.366 700.68 442.9C700.975 442.428 701.37 442.059 701.864 441.792C702.359 441.525 702.904 441.326 703.501 441.195C704.103 441.059 704.708 440.951 705.316 440.871C706.111 440.769 706.756 440.692 707.251 440.641C707.751 440.584 708.114 440.491 708.342 440.36C708.575 440.229 708.691 440.002 708.691 439.678V439.61C708.691 438.769 708.461 438.116 708.001 437.65C707.546 437.184 706.856 436.951 705.93 436.951C704.969 436.951 704.217 437.161 703.671 437.581C703.126 438.002 702.742 438.451 702.521 438.928L700.611 438.246C700.952 437.451 701.407 436.831 701.975 436.388C702.549 435.939 703.174 435.627 703.85 435.451C704.532 435.269 705.202 435.178 705.861 435.178C706.282 435.178 706.765 435.229 707.31 435.331C707.861 435.428 708.393 435.63 708.904 435.937C709.421 436.243 709.85 436.706 710.191 437.326C710.532 437.945 710.702 438.775 710.702 439.814V448.439H708.691V446.667H708.589C708.452 446.951 708.225 447.255 707.907 447.579C707.589 447.903 707.165 448.178 706.637 448.405C706.109 448.633 705.464 448.746 704.702 448.746ZM705.009 446.939C705.805 446.939 706.475 446.783 707.021 446.471C707.572 446.158 707.986 445.755 708.265 445.26C708.549 444.766 708.691 444.246 708.691 443.701V441.86C708.606 441.962 708.418 442.056 708.129 442.141C707.844 442.221 707.515 442.292 707.14 442.354C706.771 442.411 706.41 442.462 706.058 442.508C705.711 442.547 705.43 442.581 705.214 442.61C704.691 442.678 704.202 442.789 703.748 442.942C703.299 443.09 702.935 443.314 702.657 443.616C702.384 443.911 702.248 444.314 702.248 444.826C702.248 445.525 702.506 446.053 703.023 446.411C703.546 446.763 704.208 446.939 705.009 446.939Z" fill="#42526D"/>
<path d="M259.729 395.334V362.484H272.69C275.17 362.484 277.288 362.928 279.041 363.815C280.806 364.692 282.148 365.938 283.067 367.553C283.998 369.157 284.463 371.044 284.463 373.215C284.463 375.396 283.992 377.273 283.051 378.845C282.11 380.406 280.747 381.604 278.961 382.438C277.186 383.272 275.037 383.689 272.513 383.689H263.835V378.107H271.39C272.716 378.107 273.818 377.925 274.695 377.562C275.571 377.198 276.224 376.653 276.651 375.926C277.09 375.198 277.309 374.295 277.309 373.215C277.309 372.124 277.09 371.204 276.651 370.456C276.224 369.707 275.566 369.141 274.679 368.756C273.802 368.36 272.695 368.162 271.358 368.162H266.675V395.334H259.729ZM277.469 380.385L285.634 395.334H277.967L269.979 380.385H277.469ZM303.687 395.815C301.153 395.815 298.972 395.302 297.143 394.275C295.325 393.238 293.924 391.773 292.941 389.88C291.957 387.977 291.465 385.726 291.465 383.128C291.465 380.593 291.957 378.369 292.941 376.455C293.924 374.541 295.309 373.049 297.095 371.98C298.891 370.91 300.998 370.376 303.415 370.376C305.04 370.376 306.553 370.638 307.954 371.162C309.365 371.675 310.595 372.45 311.643 373.488C312.702 374.525 313.525 375.829 314.113 377.401C314.701 378.962 314.996 380.791 314.996 382.887V384.764H294.192V380.529H308.563C308.563 379.545 308.35 378.674 307.922 377.915C307.494 377.155 306.901 376.562 306.141 376.134C305.393 375.696 304.521 375.476 303.527 375.476C302.49 375.476 301.57 375.717 300.768 376.198C299.977 376.669 299.357 377.305 298.907 378.107C298.458 378.898 298.228 379.781 298.218 380.754V384.78C298.218 385.999 298.442 387.052 298.891 387.94C299.351 388.827 299.998 389.511 300.832 389.993C301.666 390.474 302.655 390.714 303.8 390.714C304.559 390.714 305.254 390.608 305.885 390.394C306.516 390.18 307.056 389.859 307.505 389.431C307.954 389.004 308.296 388.48 308.531 387.859L314.851 388.276C314.53 389.795 313.873 391.121 312.878 392.254C311.894 393.377 310.622 394.254 309.061 394.885C307.51 395.505 305.719 395.815 303.687 395.815ZM343.567 377.722L337.312 378.107C337.205 377.572 336.975 377.091 336.622 376.663C336.269 376.225 335.804 375.877 335.226 375.621C334.66 375.353 333.981 375.22 333.189 375.22C332.131 375.22 331.238 375.444 330.511 375.894C329.784 376.332 329.42 376.92 329.42 377.658C329.42 378.246 329.655 378.743 330.126 379.15C330.596 379.556 331.404 379.882 332.548 380.128L337.007 381.026C339.402 381.518 341.188 382.31 342.364 383.4C343.541 384.491 344.129 385.924 344.129 387.699C344.129 389.314 343.653 390.731 342.701 391.95C341.76 393.169 340.466 394.12 338.819 394.805C337.183 395.478 335.296 395.815 333.157 395.815C329.896 395.815 327.297 395.136 325.362 393.778C323.437 392.409 322.309 390.549 321.977 388.196L328.698 387.843C328.901 388.838 329.393 389.597 330.174 390.121C330.954 390.634 331.954 390.891 333.173 390.891C334.371 390.891 335.333 390.661 336.061 390.201C336.798 389.731 337.173 389.127 337.183 388.389C337.173 387.768 336.911 387.261 336.397 386.865C335.884 386.459 335.093 386.148 334.023 385.935L329.757 385.084C327.351 384.603 325.56 383.769 324.383 382.582C323.218 381.395 322.635 379.882 322.635 378.043C322.635 376.46 323.063 375.097 323.918 373.953C324.784 372.808 325.998 371.926 327.559 371.306C329.131 370.686 330.971 370.376 333.077 370.376C336.189 370.376 338.638 371.033 340.423 372.349C342.22 373.664 343.268 375.455 343.567 377.722ZM363.273 395.815C360.739 395.815 358.557 395.302 356.729 394.275C354.911 393.238 353.51 391.773 352.526 389.88C351.542 387.977 351.05 385.726 351.05 383.128C351.05 380.593 351.542 378.369 352.526 376.455C353.51 374.541 354.895 373.049 356.68 371.98C358.477 370.91 360.583 370.376 363 370.376C364.626 370.376 366.139 370.638 367.54 371.162C368.951 371.675 370.181 372.45 371.229 373.488C372.287 374.525 373.111 375.829 373.699 377.401C374.287 378.962 374.581 380.791 374.581 382.887V384.764H353.777V380.529H368.149C368.149 379.545 367.935 378.674 367.507 377.915C367.08 377.155 366.486 376.562 365.727 376.134C364.978 375.696 364.107 375.476 363.112 375.476C362.075 375.476 361.156 375.717 360.354 376.198C359.562 376.669 358.942 377.305 358.493 378.107C358.044 378.898 357.814 379.781 357.803 380.754V384.78C357.803 385.999 358.028 387.052 358.477 387.94C358.937 388.827 359.584 389.511 360.418 389.993C361.252 390.474 362.241 390.714 363.385 390.714C364.144 390.714 364.839 390.608 365.47 390.394C366.101 390.18 366.641 389.859 367.09 389.431C367.54 389.004 367.882 388.48 368.117 387.859L374.437 388.276C374.116 389.795 373.458 391.121 372.464 392.254C371.48 393.377 370.207 394.254 368.646 394.885C367.096 395.505 365.305 395.815 363.273 395.815ZM389.679 395.799C388.107 395.799 386.706 395.526 385.477 394.981C384.247 394.425 383.274 393.607 382.557 392.527C381.852 391.436 381.499 390.078 381.499 388.453C381.499 387.084 381.75 385.935 382.253 385.004C382.755 384.074 383.44 383.325 384.306 382.759C385.172 382.192 386.156 381.764 387.257 381.475C388.369 381.187 389.535 380.984 390.754 380.866C392.187 380.716 393.342 380.577 394.219 380.449C395.095 380.31 395.732 380.107 396.127 379.839C396.523 379.572 396.721 379.176 396.721 378.652V378.556C396.721 377.54 396.4 376.754 395.758 376.198C395.127 375.642 394.229 375.364 393.064 375.364C391.834 375.364 390.855 375.637 390.128 376.182C389.401 376.717 388.92 377.391 388.685 378.203L382.365 377.69C382.686 376.193 383.317 374.899 384.258 373.808C385.199 372.707 386.412 371.862 387.899 371.274C389.396 370.675 391.128 370.376 393.096 370.376C394.464 370.376 395.774 370.536 397.026 370.857C398.287 371.178 399.405 371.675 400.378 372.349C401.362 373.022 402.137 373.889 402.704 374.947C403.27 375.995 403.554 377.252 403.554 378.717V395.334H397.074V391.917H396.881C396.486 392.687 395.956 393.366 395.293 393.955C394.63 394.532 393.834 394.986 392.903 395.318C391.973 395.639 390.898 395.799 389.679 395.799ZM391.636 391.083C392.641 391.083 393.529 390.886 394.299 390.49C395.069 390.084 395.673 389.538 396.111 388.854C396.55 388.169 396.769 387.394 396.769 386.528V383.914C396.555 384.053 396.261 384.181 395.887 384.298C395.523 384.405 395.111 384.507 394.652 384.603C394.192 384.689 393.732 384.769 393.272 384.844C392.812 384.908 392.395 384.967 392.021 385.02C391.219 385.138 390.519 385.325 389.92 385.582C389.321 385.838 388.856 386.186 388.524 386.624C388.193 387.052 388.027 387.587 388.027 388.228C388.027 389.159 388.364 389.87 389.038 390.362C389.722 390.843 390.588 391.083 391.636 391.083ZM412.468 395.334V370.697H419.093V374.995H419.35C419.799 373.466 420.553 372.311 421.611 371.531C422.67 370.739 423.889 370.344 425.268 370.344C425.611 370.344 425.98 370.365 426.375 370.408C426.771 370.451 427.118 370.509 427.418 370.584V376.647C427.097 376.551 426.653 376.466 426.086 376.391C425.52 376.316 425.001 376.278 424.531 376.278C423.525 376.278 422.627 376.498 421.836 376.936C421.055 377.364 420.435 377.963 419.975 378.733C419.526 379.503 419.302 380.39 419.302 381.395V395.334H412.468ZM444.549 395.815C442.025 395.815 439.855 395.281 438.037 394.211C436.23 393.131 434.839 391.634 433.866 389.72C432.904 387.806 432.423 385.603 432.423 383.112C432.423 380.588 432.909 378.374 433.882 376.471C434.866 374.557 436.262 373.065 438.069 371.996C439.876 370.916 442.025 370.376 444.517 370.376C446.666 370.376 448.548 370.766 450.163 371.547C451.778 372.327 453.056 373.423 453.997 374.835C454.938 376.246 455.456 377.904 455.552 379.807H449.104C448.923 378.578 448.441 377.588 447.661 376.84C446.891 376.081 445.88 375.701 444.629 375.701C443.571 375.701 442.646 375.99 441.854 376.567C441.074 377.134 440.464 377.963 440.026 379.053C439.587 380.144 439.368 381.465 439.368 383.015C439.368 384.587 439.582 385.924 440.01 387.025C440.448 388.127 441.063 388.966 441.854 389.544C442.646 390.121 443.571 390.41 444.629 390.41C445.41 390.41 446.11 390.249 446.73 389.929C447.361 389.608 447.88 389.143 448.286 388.533C448.703 387.913 448.976 387.17 449.104 386.303H455.552C455.445 388.185 454.932 389.843 454.013 391.276C453.104 392.698 451.847 393.81 450.243 394.612C448.639 395.414 446.741 395.815 444.549 395.815ZM470.374 381.09V395.334H463.541V362.484H470.181V375.043H470.47C471.026 373.589 471.924 372.45 473.165 371.627C474.405 370.793 475.961 370.376 477.832 370.376C479.543 370.376 481.035 370.75 482.308 371.499C483.591 372.236 484.585 373.3 485.291 374.691C486.008 376.07 486.36 377.722 486.35 379.647V395.334H479.517V380.866C479.527 379.347 479.142 378.166 478.362 377.321C477.592 376.476 476.512 376.054 475.122 376.054C474.191 376.054 473.368 376.252 472.652 376.647C471.946 377.043 471.39 377.62 470.983 378.38C470.588 379.128 470.385 380.032 470.374 381.09ZM523.604 362.484H532.169L541.216 384.555H541.601L550.647 362.484H559.213V395.334H552.476V373.953H552.203L543.702 395.174H539.115L530.613 373.872H530.341V395.334H523.604V362.484ZM579.552 395.815C577.06 395.815 574.906 395.286 573.088 394.227C571.281 393.158 569.885 391.672 568.901 389.768C567.918 387.854 567.426 385.635 567.426 383.112C567.426 380.566 567.918 378.342 568.901 376.439C569.885 374.525 571.281 373.038 573.088 371.98C574.906 370.91 577.06 370.376 579.552 370.376C582.044 370.376 584.193 370.91 586 371.98C587.818 373.038 589.219 374.525 590.203 376.439C591.186 378.342 591.678 380.566 591.678 383.112C591.678 385.635 591.186 387.854 590.203 389.768C589.219 391.672 587.818 393.158 586 394.227C584.193 395.286 582.044 395.815 579.552 395.815ZM579.584 390.522C580.718 390.522 581.664 390.201 582.423 389.56C583.182 388.907 583.754 388.02 584.139 386.897C584.535 385.774 584.733 384.496 584.733 383.063C584.733 381.63 584.535 380.353 584.139 379.23C583.754 378.107 583.182 377.219 582.423 376.567C581.664 375.915 580.718 375.589 579.584 375.589C578.44 375.589 577.478 375.915 576.697 376.567C575.927 377.219 575.344 378.107 574.949 379.23C574.564 380.353 574.371 381.63 574.371 383.063C574.371 384.496 574.564 385.774 574.949 386.897C575.344 388.02 575.927 388.907 576.697 389.56C577.478 390.201 578.44 390.522 579.584 390.522ZM599.735 395.334V370.697H606.359V374.995H606.616C607.065 373.466 607.819 372.311 608.878 371.531C609.936 370.739 611.155 370.344 612.535 370.344C612.877 370.344 613.246 370.365 613.642 370.408C614.037 370.451 614.385 370.509 614.684 370.584V376.647C614.363 376.551 613.92 376.466 613.353 376.391C612.786 376.316 612.267 376.278 611.797 376.278C610.792 376.278 609.893 376.498 609.102 376.936C608.322 377.364 607.701 377.963 607.242 378.733C606.792 379.503 606.568 380.39 606.568 381.395V395.334H599.735ZM631.912 395.815C629.377 395.815 627.196 395.302 625.367 394.275C623.549 393.238 622.149 391.773 621.165 389.88C620.181 387.977 619.689 385.726 619.689 383.128C619.689 380.593 620.181 378.369 621.165 376.455C622.149 374.541 623.533 373.049 625.319 371.98C627.116 370.91 629.222 370.376 631.639 370.376C633.264 370.376 634.777 370.638 636.178 371.162C637.59 371.675 638.819 372.45 639.867 373.488C640.926 374.525 641.749 375.829 642.338 377.401C642.926 378.962 643.22 380.791 643.22 382.887V384.764H622.416V380.529H636.788C636.788 379.545 636.574 378.674 636.146 377.915C635.718 377.155 635.125 376.562 634.366 376.134C633.617 375.696 632.746 375.476 631.751 375.476C630.714 375.476 629.794 375.717 628.992 376.198C628.201 376.669 627.581 377.305 627.132 378.107C626.683 378.898 626.453 379.781 626.442 380.754V384.78C626.442 385.999 626.666 387.052 627.116 387.94C627.575 388.827 628.222 389.511 629.056 389.993C629.891 390.474 630.88 390.714 632.024 390.714C632.783 390.714 633.478 390.608 634.109 390.394C634.74 390.18 635.28 389.859 635.729 389.431C636.178 389.004 636.52 388.48 636.756 387.859L643.075 388.276C642.755 389.795 642.097 391.121 641.102 392.254C640.119 393.377 638.846 394.254 637.285 394.885C635.734 395.505 633.943 395.815 631.912 395.815Z" fill="#263238"/>
<path d="M498.489 405.208L504.465 398.689C504.962 398.146 505.818 398.146 506.315 398.689L512.291 405.208" stroke="#EC614B" stroke-width="5.01874" stroke-linecap="round"/>
<path d="M249.5 399.501C304.5 370.501 497.716 377.403 497.716 377.403" stroke="#EC614B" stroke-width="3.76405" stroke-linecap="round"/>
<path d="M468.903 353.277L468.924 353.559C468.421 354.426 467.756 354.889 466.93 354.949C466.292 354.995 465.727 354.753 465.236 354.223C464.8 352.896 462.144 350.881 457.268 348.177C452.43 345.472 449.26 344.173 447.758 344.282C447.495 344.301 447.158 344.326 446.745 344.356C446.222 344.431 445.866 344.476 445.679 344.489L445.838 346.686C445.893 347.436 446.059 348.425 446.336 349.65C446.633 351.138 446.906 352.043 447.156 352.364C447.897 353.216 448.276 353.755 448.292 353.98C448.341 354.656 448.119 355.238 447.626 355.727C447.131 356.178 446.545 356.428 445.869 356.477C444.442 356.58 443.298 356.154 442.436 355.197C441.62 354.351 440.975 350.661 440.501 344.129C439.713 344.186 438.869 344.002 437.97 343.577C436.951 343.047 436.416 342.444 436.367 341.768C436.267 340.379 437.452 339.293 439.924 338.51C439.989 337.335 440.005 335.73 439.971 333.695C439.88 331.399 439.858 329.797 439.905 328.888C440.043 327.67 440.194 325.848 440.358 323.421L439.907 323.453C438.408 323.6 437.61 322.997 437.512 321.646C437.427 320.482 437.825 319.717 438.704 319.351C439.328 319.117 439.953 318.883 440.578 318.649C441.279 317.919 441.83 317.445 442.229 317.228C442.663 316.97 443.35 316.807 444.288 316.739C444.964 316.69 445.324 316.965 445.367 317.566C445.381 317.754 445.857 317.814 446.796 317.746C451.188 317.427 454.987 318.038 458.194 319.579C462.141 321.444 464.261 324.404 464.555 328.458C464.782 331.574 463.992 334.217 462.187 336.386C460.974 337.87 458.759 339.597 455.543 341.566C458.331 343.062 461.1 344.559 463.851 346.058C467.058 348.128 468.742 350.534 468.903 353.277ZM459.358 328.609C459.184 326.206 457.832 324.474 455.302 323.412C453.276 322.54 450.949 322.199 448.321 322.39C447.983 322.415 447.18 322.529 445.912 322.735C446.048 324.083 445.86 326.437 445.349 329.795C445.08 331.815 445.01 334.745 445.137 338.585C447.369 339.178 448.748 339.455 449.273 339.417C449.724 339.384 450.371 339.205 451.216 338.88C453.639 337.949 455.583 336.657 457.048 335.003C458.76 333.106 459.53 330.974 459.358 328.609ZM494.727 347.385C494.863 349.262 493.693 350.819 491.216 352.055C489.286 353.025 487.233 353.589 485.055 353.747C479.274 354.167 476.145 351.091 475.668 344.522C475.472 341.819 475.911 338.768 476.985 335.369C478.306 331.197 480.111 329.028 482.401 328.862C484.466 328.712 486.747 329.471 489.246 331.139C491.782 332.805 493.122 334.632 493.266 336.622C493.446 339.1 492.482 341.151 490.373 342.776C488.516 344.231 486.236 345.057 483.533 345.253C483.008 345.291 482.14 345.033 480.93 344.48C481.339 348.035 482.519 349.742 484.471 349.601C486.123 349.481 487.703 348.894 489.212 347.841C490.758 346.786 491.757 346.242 492.207 346.209C493.821 346.092 494.661 346.484 494.727 347.385ZM487.816 337.187C487.748 336.248 487.403 335.387 486.78 334.602C486.191 333.776 485.447 333.396 484.546 333.462C483.307 333.551 482.389 334.165 481.792 335.303C481.297 336.282 481.096 337.41 481.189 338.687C481.24 339.4 481.527 339.964 482.047 340.379C482.568 340.794 483.204 340.975 483.955 340.92C486.695 340.721 487.983 339.477 487.816 337.187ZM520.568 340.868C520.92 345.711 521.017 349.138 520.861 351.15C520.758 352.327 520.012 352.966 518.623 353.067C516.52 353.22 515.506 352.237 515.578 350.118C513.767 351.155 511.847 351.747 509.82 351.894C507.868 352.036 505.974 351.683 504.139 350.834C501.952 349.823 500.793 348.417 500.662 346.615C500.534 344.85 501.616 343.111 503.907 341.398C505.984 339.851 507.979 339.008 509.894 338.869L514.68 338.521L514.582 337.17C514.334 333.225 513.027 331.339 510.662 331.51C507.696 331.726 506.314 333.222 506.516 336C506.584 336.939 506.092 337.446 505.041 337.522C504.403 337.569 503.707 337.336 502.953 336.825C502.233 336.273 501.85 335.678 501.804 335.04C501.652 332.938 502.277 331.156 503.681 329.696C505.084 328.235 506.837 327.429 508.94 327.276C515.998 326.764 519.874 331.295 520.568 340.868ZM515.028 343.308C514.973 342.557 514.383 342.223 513.257 342.304C508.564 342.645 506.298 343.922 506.459 346.137C506.546 347.339 507.622 347.865 509.686 347.715C510.963 347.622 512.138 347.178 513.213 346.383C514.507 345.497 515.112 344.472 515.028 343.308ZM548.241 342.087C548.326 343.251 547.543 344.685 545.893 346.39C544.422 347.969 543.062 348.992 541.813 349.46C540.602 349.925 539.433 350.199 538.306 350.281C535.341 350.496 532.945 349.726 531.119 347.971C529.331 346.214 528.33 343.853 528.115 340.887C527.905 337.996 528.44 334.712 529.721 331.034C531.25 326.62 533.234 324.325 535.675 324.148C537.026 324.05 538.697 324.457 540.688 325.37C542.8 326.386 544.067 327.464 544.489 328.604C544.863 329.595 545.096 330.73 545.189 332.006C545.273 333.17 545.125 334.501 544.743 336.001C544.278 337.922 543.596 338.915 542.695 338.98C542.056 339.026 541.442 338.882 540.852 338.548C540.146 338.184 539.771 337.701 539.728 337.101C539.725 337.063 539.863 336.619 540.141 335.769C540.301 335.38 540.32 334.341 540.198 332.651C540.097 331.262 539.975 330.365 539.833 329.96C539.523 328.813 538.955 328.269 538.129 328.329C536.29 328.462 534.979 330.162 534.197 333.426C533.617 335.846 533.415 338.257 533.589 340.66C533.881 344.677 535.303 346.592 537.856 346.407C538.869 346.334 539.995 345.724 541.233 344.577C542.363 343.514 543.136 342.458 543.55 341.409C544.064 340.164 544.752 339.51 545.616 339.447C546.179 339.407 546.748 339.705 547.322 340.343C547.894 340.943 548.2 341.524 548.241 342.087ZM573.421 347.563C572.759 348.328 571.847 348.753 570.683 348.838C569.895 348.895 569.052 348.465 568.155 347.549C567.953 344.243 567.787 341.688 567.656 339.886C567.051 331.552 565.529 327.474 563.089 327.651C560.573 327.833 559.56 331.284 560.047 338.004C560.074 338.38 560.133 338.923 560.222 339.633C560.274 340.347 560.313 340.891 560.34 341.266C560.381 341.829 560.538 342.686 560.81 343.836C561.079 344.949 561.234 345.787 561.275 346.35C561.311 346.838 561.042 347.292 560.468 347.71C559.935 348.164 559.424 348.409 558.936 348.444C557.998 348.512 557.163 348.196 556.433 347.494C555.738 346.752 555.356 345.911 555.288 344.973L553.265 312.399C553.256 312.287 553.227 312.138 553.176 311.953C553.124 311.768 553.096 311.638 553.091 311.563C552.993 310.211 553.694 309.481 555.196 309.372C555.909 309.321 556.76 309.598 557.747 310.206C558.732 310.776 559.249 311.399 559.298 312.075C559.358 312.901 559.259 314.135 559.001 315.776C558.78 317.415 558.699 318.647 558.759 319.473C558.836 320.524 558.994 322.192 559.236 324.477C560.026 323.929 560.703 323.635 561.266 323.594C562.73 323.488 564.352 323.728 566.13 324.316C568.413 325.094 570.063 326.503 571.079 328.543C571.831 330.073 572.308 332.228 572.51 335.006L573.421 347.563Z" fill="#EC614B"/>
<path d="M559.263 461.614C576.201 451.631 657.129 455.396 726.062 461.614" stroke="#EC614B" stroke-width="3.76405" stroke-linecap="round"/>
</svg>
