<svg width="17" height="16" viewBox="0 0 17 16" fill="none" xmlns="http://www.w3.org/2000/svg">
<path d="M14.886 11.9133C13.9561 12.3782 12.9004 12.3007 12.0771 11.7874V11.7971C12.0481 11.7777 11.4476 11.2644 10.295 11.8165C9.85914 12.0199 9.45234 12.3492 9.278 12.8141C9.10366 13.279 9.16177 13.7923 8.96806 14.2572C8.70655 14.8771 8.23195 15.3808 7.63145 15.6907C6.15924 16.4365 4.34803 15.7876 3.69909 14.2379C3.16638 12.9691 3.64098 11.4775 4.79356 10.7414C5.36502 10.3733 6.05269 10.2183 6.73069 10.3152C7.42805 10.4121 7.96076 10.877 8.65812 10.9641C9.13272 11.0222 9.83977 10.9254 10.0819 10.4508C10.2756 10.0634 10.111 9.5694 9.71385 9.39506C9.35548 9.2304 8.92932 9.06575 8.4063 8.91078C7.98013 8.77518 7.5927 8.68801 7.25371 8.62021C6.57572 8.4943 5.89772 8.58147 5.24879 8.79455C4.62891 8.99795 4.07683 9.39506 3.42789 9.48223C2.28499 9.60814 1.11303 9.02701 0.551268 8.01001C-0.233266 6.58623 0.309128 4.82344 1.73291 4.08733C2.18814 3.84519 2.73053 3.74834 3.24387 3.78708C3.80563 3.83551 4.2318 4.1067 4.74514 4.31979C5.47156 4.62973 6.18829 4.4457 6.81786 4.00985C7.03094 3.86456 7.22465 3.69022 7.34088 3.46745C7.5927 2.94443 7.41836 2.32455 7.6605 1.77247C7.94139 1.15259 8.38692 0.619878 9.01649 0.309938C10.4306 -0.406799 12.1449 0.164653 12.8617 1.56907C13.5494 2.92506 13.036 4.61036 11.7091 5.34647C10.7986 5.8598 9.73322 5.81138 8.90026 5.33678C8.21258 4.94935 6.93408 4.91061 6.53697 5.74358C6.30452 6.22786 6.48855 6.79931 6.95345 7.05114C7.36994 7.27391 7.9317 7.50636 8.66781 7.73882C9.08429 7.86473 9.45234 7.96159 9.78165 8.02938C10.4015 8.1553 11.0408 7.94221 11.4669 7.4773C11.7188 7.18674 12.0384 6.94459 12.4161 6.77994C13.7624 6.16974 15.3799 6.70245 16.0967 7.99064C16.8812 9.40475 16.3291 11.1869 14.886 11.9133Z" fill="#EFB6AC"/>
<path d="M13.5975 12.2232C15.1755 12.2232 16.4547 10.944 16.4547 9.36599C16.4547 7.78797 15.1755 6.50873 13.5975 6.50873C12.0195 6.50873 10.7402 7.78797 10.7402 9.36599C10.7402 10.944 12.0195 12.2232 13.5975 12.2232Z" fill="#EB614B"/>
<path d="M10.3045 5.71452C11.8825 5.71452 13.1618 4.43528 13.1618 2.85726C13.1618 1.27924 11.8825 0 10.3045 0C8.7265 0 7.44727 1.27924 7.44727 2.85726C7.44727 4.43528 8.7265 5.71452 10.3045 5.71452Z" fill="#EB614B"/>
<path d="M6.3435 15.9813C7.92687 15.9813 9.21044 14.6978 9.21044 13.1144C9.21044 11.531 7.92687 10.2474 6.3435 10.2474C4.76013 10.2474 3.47656 11.531 3.47656 13.1144C3.47656 14.6978 4.76013 15.9813 6.3435 15.9813Z" fill="#EB614B"/>
</svg>
