<svg width="144" height="33" viewBox="0 0 144 33" fill="none" xmlns="http://www.w3.org/2000/svg">
<path d="M29.5148 24.3464C28.6504 24.7922 27.6873 25.0027 26.7192 24.9575C25.7511 24.9123 24.811 24.6129 23.9904 24.0884L23.9972 24.1032C23.9485 24.0606 22.7538 23.0406 20.4927 24.1384C19.6343 24.5553 18.8355 25.2102 18.4837 26.1347C18.1319 27.0593 18.2625 28.1019 17.8747 29.0176C17.4427 30.0548 16.7189 30.9388 15.7945 31.5584C14.87 32.178 13.7862 32.5056 12.6792 32.4999C11.5723 32.4942 10.4918 32.1555 9.57354 31.5264C8.65528 30.8973 7.94033 30.0059 7.51861 28.9644C6.47954 26.4247 7.39527 23.445 9.67413 21.9665C10.8031 21.2319 12.1518 20.9295 13.4795 21.1133C14.8449 21.306 15.904 22.2458 17.2735 22.4102C18.202 22.5242 19.6047 22.3292 20.0812 21.3782C20.4704 20.6015 20.1372 19.6214 19.3562 19.2633C18.5199 18.8856 17.6616 18.5608 16.7861 18.2906C16.0416 18.0536 15.2851 17.8577 14.5199 17.7038C13.196 17.443 11.8556 17.6213 10.5853 18.0507C9.37328 18.4606 8.27277 19.2457 6.99703 19.4208C4.73228 19.7316 2.42566 18.5662 1.31877 16.5282C0.954973 15.8603 0.726316 15.125 0.646297 14.3657C0.566277 13.6064 0.636518 12.8384 0.852872 12.1072C1.06923 11.376 1.42731 10.6963 1.906 10.1082C2.38468 9.5201 2.97427 9.03555 3.63996 8.68313C4.55675 8.20815 5.58539 8.00237 6.61062 8.08885C7.72342 8.18149 8.55632 8.72481 9.55807 9.1616C10.9799 9.78181 12.3931 9.41543 13.6297 8.54278C14.0393 8.25236 14.4357 7.90728 14.6533 7.45012C15.1539 6.39867 14.8067 5.15594 15.2905 4.06373C15.8489 2.80525 16.7383 1.74917 17.9617 1.12016C18.6208 0.780322 19.3393 0.576134 20.076 0.51929C20.8128 0.462447 21.5534 0.554063 22.2553 0.788894C22.9572 1.02373 23.6067 1.39716 24.1666 1.88781C24.7265 2.37846 25.1858 2.97669 25.5183 3.64825C26.8614 6.36208 25.8532 9.72716 23.2471 11.2089C22.4024 11.6913 21.4493 11.9431 20.4807 11.9398C19.512 11.9365 18.5606 11.6781 17.7191 11.1899C16.3673 10.4071 13.8473 10.333 13.0672 12.0102C12.855 12.4705 12.8243 12.9961 12.9816 13.4787C13.1388 13.9612 13.4719 14.364 13.9123 14.6041C14.7411 15.0455 15.8371 15.5161 17.2803 15.971C18.0014 16.2011 18.734 16.3922 19.475 16.5435C20.6911 16.7876 21.9596 16.3762 22.7824 15.4318C23.3034 14.8379 23.9403 14.3612 24.6526 14.032C27.3001 12.8055 30.4783 13.8736 31.8892 16.4629C32.2572 17.1357 32.4878 17.8773 32.5672 18.643C32.6467 19.4088 32.5733 20.183 32.3516 20.9192C32.1298 21.6554 31.7643 22.3384 31.2768 22.9274C30.7893 23.5163 30.19 23.9989 29.5148 24.3464Z" fill="#EFB6AC"/>
<path d="M26.9871 24.9723C30.095 24.9723 32.6144 22.4083 32.6144 19.2454C32.6144 16.0826 30.095 13.5186 26.9871 13.5186C23.8793 13.5186 21.3599 16.0826 21.3599 19.2454C21.3599 22.4083 23.8793 24.9723 26.9871 24.9723Z" fill="#EB614B"/>
<path d="M20.4997 11.9315C23.6015 11.9315 26.116 9.37249 26.116 6.21576C26.116 3.05903 23.6015 0.5 20.4997 0.5C17.3978 0.5 14.8833 3.05903 14.8833 6.21576C14.8833 9.37249 17.3978 11.9315 20.4997 11.9315Z" fill="#EB614B"/>
<path d="M12.7093 32.4977C15.8247 32.4977 18.3502 29.9274 18.3502 26.7569C18.3502 23.5863 15.8247 21.0161 12.7093 21.0161C9.59389 21.0161 7.06836 23.5863 7.06836 26.7569C7.06836 29.9274 9.59389 32.4977 12.7093 32.4977Z" fill="#EB614B"/>
<path d="M47.7438 2.50049C51.7448 2.50049 54.8221 5.68574 54.8221 10.2743V12.5429C54.8221 12.6457 54.7813 12.7442 54.7086 12.8169C54.6359 12.8896 54.5373 12.9304 54.4346 12.9304H50.4548C50.352 12.9304 50.2535 12.8896 50.1808 12.8169C50.1081 12.7442 50.0673 12.6457 50.0673 12.5429V10.2743C50.0673 7.58981 48.7153 7.24474 47.7208 7.24474C46.8095 7.24474 45.3638 7.63759 45.3638 10.0194C45.3638 11.3396 45.1868 12.2969 46.3707 13.0507C48.5207 14.4133 50.2867 15.5388 52.8083 17.1438C54.5443 18.2498 55.3176 20.3627 55.3176 22.695C55.3176 27.2959 52.2403 30.2546 48.2747 30.2564C44.0702 30.2564 40.7399 27.2109 40.7399 22.7339V20.2264C40.7408 20.1245 40.7818 20.0271 40.854 19.9553C40.9262 19.8834 41.0238 19.8429 41.1257 19.8424H45.1054C45.2077 19.8424 45.3059 19.883 45.3782 19.9554C45.4505 20.0277 45.4912 20.1259 45.4912 20.2282V23.3444C45.5053 24.6486 46.4751 25.5051 48.0571 25.5051C49.7222 25.5051 50.4725 24.9264 50.5203 23.6912C50.5203 21.8031 50.5875 21.1094 48.8357 19.9928C46.9741 18.8054 45.0824 17.5933 42.9147 16.2254C41.0655 15.0592 40.6143 12.8242 40.6143 10.0212C40.6107 5.8627 43.6526 2.50049 47.7438 2.50049Z" fill="#EB614B"/>
<path d="M61.8462 3.07769C63.1345 7.78655 64.628 12.8582 65.9162 17.4432C65.9389 17.5243 65.9874 17.5959 66.0545 17.6468C66.1216 17.6978 66.2036 17.7254 66.2878 17.7254C66.3721 17.7254 66.4541 17.6978 66.5212 17.6468C66.5883 17.5959 66.6368 17.5243 66.6595 17.4432C68.0079 12.8104 69.3138 7.82902 70.6834 3.06884C70.7071 2.98864 70.7561 2.91824 70.8231 2.86817C70.8901 2.8181 70.9714 2.79103 71.0551 2.79102H75.1251C75.2272 2.79148 75.3251 2.83227 75.3973 2.90452C75.4696 2.97676 75.5104 3.07462 75.5108 3.17678V29.5082C75.5104 29.6103 75.4696 29.7082 75.3973 29.7804C75.3251 29.8527 75.2272 29.8935 75.1251 29.8939H71.1559C71.0538 29.8935 70.9559 29.8527 70.8837 29.7804C70.8114 29.7082 70.7706 29.6103 70.7702 29.5082V20.7558C70.7689 20.6631 70.7344 20.574 70.673 20.5045C70.6116 20.4351 70.5273 20.3899 70.4355 20.3773C70.3436 20.3647 70.2503 20.3854 70.1724 20.4357C70.0946 20.486 70.0373 20.5625 70.011 20.6514C69.2312 23.4474 68.4473 26.2403 67.6593 29.0304C67.6368 29.1117 67.5883 29.1835 67.5212 29.2346C67.4541 29.2857 67.372 29.3135 67.2877 29.3135H65.2367C65.1523 29.3135 65.0703 29.2857 65.0032 29.2346C64.9361 29.1835 64.8876 29.1117 64.8651 29.0304C64.0865 26.2545 63.3073 23.4786 62.5275 20.7027C62.5012 20.6138 62.444 20.5373 62.3661 20.487C62.2882 20.4367 62.1949 20.416 62.1031 20.4286C62.0112 20.4413 61.927 20.4864 61.8656 20.5558C61.8042 20.6253 61.7697 20.7144 61.7684 20.8071V29.5117C61.7679 29.6139 61.7271 29.7117 61.6549 29.784C61.5826 29.8562 61.4848 29.897 61.3826 29.8975H57.4029C57.3007 29.897 57.2028 29.8562 57.1306 29.784C57.0583 29.7117 57.0176 29.6139 57.0171 29.5117V3.18032C57.0176 3.07815 57.0583 2.9803 57.1306 2.90806C57.2028 2.83581 57.3007 2.79502 57.4029 2.79455H61.4729C61.5575 2.79422 61.64 2.82176 61.7075 2.87293C61.7749 2.9241 61.8237 2.99605 61.8462 3.07769Z" fill="#EB614B"/>
<path d="M88.3135 3.11546L93.3408 29.4398C93.3518 29.4957 93.3503 29.5533 93.3363 29.6086C93.3224 29.6638 93.2963 29.7153 93.2601 29.7593C93.2239 29.8032 93.1784 29.8387 93.1269 29.863C93.0754 29.8873 93.0191 29.8999 92.9621 29.8999H88.9895C88.8988 29.8997 88.8111 29.8677 88.7416 29.8095C88.6721 29.7513 88.6252 29.6706 88.609 29.5813L87.9171 25.7697C87.9009 25.6806 87.8539 25.6001 87.7844 25.5422C87.7148 25.4843 87.6272 25.4527 87.5367 25.4529H83.656C83.5656 25.453 83.4781 25.4848 83.4086 25.5426C83.3391 25.6005 83.2921 25.6808 83.2755 25.7697L82.5854 29.5813C82.5689 29.6704 82.5219 29.7509 82.4525 29.8091C82.3831 29.8672 82.2955 29.8993 82.205 29.8999H78.2323C78.1753 29.8998 78.1189 29.8872 78.0674 29.8629C78.0158 29.8386 77.9702 29.8032 77.9339 29.7593C77.8975 29.7153 77.8713 29.6639 77.8571 29.6087C77.843 29.5535 77.8411 29.4958 77.8518 29.4398L82.8792 3.11546C82.8964 3.02723 82.9438 2.94773 83.0132 2.89059C83.0826 2.83345 83.1697 2.80222 83.2596 2.80225H87.9348C88.0245 2.80229 88.1114 2.83359 88.1805 2.89075C88.2496 2.94791 88.2966 3.02737 88.3135 3.11546ZM84.5567 21.2555H86.6342C86.6908 21.2554 86.7467 21.2428 86.7979 21.2187C86.8491 21.1946 86.8944 21.1595 86.9306 21.116C86.9667 21.0724 86.9928 21.0214 87.007 20.9666C87.0213 20.9118 87.0233 20.8546 87.0129 20.7989C86.659 18.8948 86.3192 17.1005 85.9511 15.1876C85.935 15.0986 85.8882 15.0182 85.8188 14.9603C85.7494 14.9024 85.6619 14.8706 85.5716 14.8706C85.4812 14.8706 85.3937 14.9024 85.3243 14.9603C85.2549 15.0182 85.2081 15.0986 85.192 15.1876C84.8522 17.0562 84.5131 18.9261 84.1745 20.7971C84.1634 20.8532 84.165 20.9111 84.1792 20.9665C84.1933 21.022 84.2197 21.0735 84.2563 21.1174C84.2929 21.1614 84.3389 21.1966 84.3909 21.2204C84.4429 21.2443 84.4995 21.2563 84.5567 21.2555Z" fill="#EB614B"/>
<path d="M102.499 2.79944C106.629 2.79944 109.809 5.75287 109.809 9.99279C109.809 11.4385 109.83 11.5854 109.83 12.8896C109.83 15.7209 108.97 17.6675 107.33 19.1504C107.275 19.2005 107.235 19.2658 107.217 19.3382C107.198 19.4105 107.201 19.4868 107.226 19.5574C108.31 22.8293 109.381 26.1155 110.46 29.3927C110.48 29.4508 110.485 29.5125 110.476 29.573C110.467 29.6335 110.443 29.6909 110.407 29.7405C110.372 29.7901 110.324 29.8305 110.27 29.8583C110.216 29.8862 110.155 29.9007 110.094 29.9006H105.962C105.881 29.9006 105.802 29.8749 105.736 29.8272C105.67 29.7795 105.621 29.7123 105.596 29.6352L102.788 21.1836C102.762 21.1065 102.713 21.0393 102.647 20.9916C102.582 20.9439 102.502 20.9182 102.421 20.9182H101.244C101.142 20.9187 101.044 20.9597 100.972 21.0323C100.899 21.105 100.859 21.2033 100.859 21.3057V29.5131C100.858 29.6152 100.817 29.7131 100.745 29.7853C100.673 29.8576 100.575 29.8984 100.473 29.8988H96.4932C96.3909 29.8988 96.2928 29.8582 96.2204 29.7858C96.1481 29.7135 96.1074 29.6154 96.1074 29.5131V3.18167C96.1074 3.07936 96.1481 2.98123 96.2204 2.90889C96.2928 2.83654 96.3909 2.7959 96.4932 2.7959L102.499 2.79944ZM100.859 7.93123V15.7722C100.859 15.8231 100.869 15.8735 100.888 15.9206C100.908 15.9676 100.936 16.0103 100.972 16.0463C101.008 16.0823 101.051 16.1108 101.098 16.1303C101.145 16.1498 101.195 16.1598 101.246 16.1598H102.131C104.805 16.1598 105.074 15.0113 105.074 12.8825C105.074 11.7783 105.053 11.4916 105.053 9.98571C105.053 8.20374 104.182 7.54546 102.496 7.54546H101.241C101.19 7.54592 101.14 7.55647 101.093 7.57651C101.046 7.59654 101.003 7.62567 100.968 7.66219C100.932 7.69872 100.904 7.74193 100.886 7.78932C100.867 7.83671 100.858 7.88735 100.859 7.93831V7.93123Z" fill="#EB614B"/>
<path d="M128.533 3.17685V7.15664C128.533 7.20737 128.523 7.25764 128.504 7.30454C128.484 7.35145 128.456 7.39407 128.42 7.42994C128.384 7.46581 128.342 7.49422 128.295 7.51352C128.248 7.53283 128.197 7.54264 128.147 7.54241H122.955C122.904 7.54241 122.854 7.55245 122.807 7.57194C122.76 7.59144 122.717 7.62001 122.681 7.65602C122.646 7.69203 122.617 7.73477 122.598 7.78178C122.579 7.82878 122.569 7.87914 122.569 7.92995V29.5189C122.569 29.6213 122.528 29.7194 122.455 29.7917C122.382 29.864 122.284 29.9046 122.182 29.9046H118.204C118.101 29.9046 118.003 29.864 117.93 29.7917C117.858 29.7194 117.817 29.6213 117.816 29.5189V7.92995C117.816 7.82747 117.775 7.72917 117.703 7.65654C117.631 7.58391 117.533 7.54288 117.43 7.54241H112.231C112.18 7.54264 112.13 7.53284 112.083 7.51355C112.036 7.49427 111.993 7.46589 111.957 7.43005C111.921 7.3942 111.893 7.3516 111.873 7.30468C111.854 7.25776 111.844 7.20745 111.844 7.15664V3.17685C111.844 3.07437 111.885 2.97626 111.958 2.90396C112.031 2.83167 112.129 2.79108 112.231 2.79108H128.14C128.191 2.79014 128.242 2.79942 128.289 2.81839C128.337 2.83735 128.38 2.86562 128.417 2.90154C128.454 2.93745 128.483 2.9803 128.502 3.02757C128.522 3.07484 128.533 3.12559 128.533 3.17685Z" fill="#EB614B"/>
<path d="M126.744 23.8298C127.629 26.7726 129.575 29.2111 132.601 30.08C134.548 30.6374 136.738 30.7064 138.618 29.8765C140.29 29.1333 141.722 27.8769 142.893 26.4895C142.935 26.44 143.403 25.8914 143.385 25.8755C142.235 24.7252 141.228 23.9908 140.117 22.8672C140.103 22.8534 140.087 22.8428 140.069 22.8358C140.051 22.8288 140.032 22.8257 140.012 22.8267C139.993 22.8277 139.974 22.8328 139.957 22.8416C139.94 22.8504 139.925 22.8627 139.913 22.8778C138.651 24.4881 137.579 25.3552 135.602 25.7091C134.816 25.8408 134.007 25.7063 133.306 25.3269C133.286 25.3161 133.269 25.3006 133.257 25.2818C133.244 25.2629 133.237 25.2413 133.235 25.2189C133.233 25.1964 133.237 25.1739 133.246 25.1532C133.254 25.1325 133.268 25.1144 133.286 25.1004C133.59 24.8579 133.888 24.612 134.171 24.3572C136.008 22.7645 138.211 20.5313 138.949 17.431C139.158 16.6086 139.189 15.7512 139.041 14.9158C138.892 14.0804 138.568 13.2861 138.089 12.5859C137.648 11.9619 137.078 11.4402 136.418 11.0567C135.757 10.6731 135.021 10.4366 134.261 10.3633C130.246 9.92797 127.459 13.7255 126.576 17.4416C126.072 19.5491 126.13 21.7518 126.744 23.8298ZM131.127 20.8392C131.108 20.8558 131.084 20.8666 131.059 20.8705C131.034 20.8743 131.009 20.8711 130.985 20.8612C130.962 20.8513 130.942 20.835 130.927 20.8142C130.912 20.7935 130.904 20.769 130.902 20.7437C130.867 19.9979 130.937 19.2509 131.109 18.5246C131.525 16.7798 132.702 14.9129 133.744 14.9854H133.767C133.87 14.989 133.97 15.016 134.06 15.0645C134.15 15.113 134.228 15.1816 134.288 15.265C134.383 15.4246 134.445 15.6021 134.47 15.7864C134.494 15.9708 134.481 16.1583 134.431 16.3374C133.999 18.1583 132.437 19.6996 131.124 20.8392H131.127Z" fill="#EB614B"/>
</svg>
