<svg width="48" height="48" viewBox="0 0 48 48" fill="none" xmlns="http://www.w3.org/2000/svg">
<path d="M0 24C0 10.7452 10.7452 0 24 0C37.2548 0 48 10.7452 48 24C48 37.2548 37.2548 48 24 48C10.7452 48 0 37.2548 0 24Z" fill="#FDEFED"/>
<path d="M33.6754 29.8845C33.0271 30.2189 32.3048 30.3768 31.5787 30.3429C30.8527 30.309 30.1476 30.0844 29.5321 29.691L29.5372 29.7021C29.5007 29.6702 28.6046 28.9052 26.9088 29.7285C26.265 30.0412 25.6659 30.5324 25.4021 31.2258C25.1382 31.9192 25.2362 32.7012 24.9454 33.388C24.6213 34.1659 24.0785 34.8288 23.3852 35.2936C22.6918 35.7583 21.8789 36.0039 21.0487 35.9997C20.2186 35.9954 19.4081 35.7414 18.7195 35.2696C18.0308 34.7977 17.4946 34.1292 17.1783 33.348C16.399 31.4433 17.0858 29.2085 18.7949 28.0996C19.6416 27.5487 20.6531 27.3219 21.6489 27.4597C22.673 27.6042 23.4673 28.3091 24.4944 28.4324C25.1908 28.5179 26.2428 28.3716 26.6002 27.6584C26.8921 27.0759 26.6422 26.3408 26.0565 26.0722C25.4293 25.789 24.7855 25.5453 24.1288 25.3427C23.5705 25.165 23.0032 25.018 22.4293 24.9026C21.4363 24.707 20.431 24.8407 19.4783 25.1628C18.5693 25.4702 17.7439 26.059 16.7871 26.1904C15.0885 26.4235 13.3586 25.5494 12.5284 24.0209C12.2555 23.52 12.084 22.9685 12.024 22.399C11.964 21.8295 12.0167 21.2536 12.179 20.7052C12.3412 20.1567 12.6098 19.647 12.9688 19.2059C13.3278 18.7648 13.77 18.4014 14.2693 18.1371C14.9569 17.7809 15.7283 17.6265 16.4973 17.6914C17.3319 17.7609 17.9565 18.1684 18.7079 18.496C19.7742 18.9611 20.8341 18.6863 21.7616 18.0318C22.0688 17.814 22.3661 17.5552 22.5293 17.2123C22.9048 16.4238 22.6443 15.4917 23.0072 14.6726C23.426 13.7287 24.093 12.9366 25.0106 12.4649C25.5049 12.21 26.0438 12.0569 26.5963 12.0142C27.1489 11.9716 27.7043 12.0403 28.2308 12.2164C28.7572 12.3925 29.2443 12.6726 29.6643 13.0406C30.0842 13.4086 30.4287 13.8573 30.678 14.3609C31.6853 16.3963 30.9292 18.9201 28.9747 20.0314C28.3411 20.3932 27.6263 20.5821 26.8998 20.5796C26.1733 20.5771 25.4598 20.3834 24.8286 20.0172C23.8148 19.4301 21.9247 19.3745 21.3397 20.6324C21.1805 20.9776 21.1575 21.3718 21.2755 21.7337C21.3934 22.0957 21.6433 22.3978 21.9736 22.5778C22.5952 22.9089 23.4171 23.2618 24.4996 23.603C25.0404 23.7756 25.5898 23.9189 26.1455 24.0324C27.0576 24.2154 28.009 23.9069 28.6261 23.1986C29.0168 22.7532 29.4946 22.3956 30.0288 22.1488C32.0144 21.2289 34.398 22.03 35.4562 23.9719C35.7322 24.4765 35.9051 25.0327 35.9647 25.607C36.0243 26.1813 35.9693 26.762 35.803 27.3141C35.6367 27.8663 35.3625 28.3786 34.9969 28.8203C34.6313 29.262 34.1818 29.6239 33.6754 29.8845Z" fill="#EFB6AC"/>
<path d="M31.7795 30.3541C34.1104 30.3541 36 28.4311 36 26.059C36 23.6868 34.1104 21.7638 31.7795 21.7638C29.4486 21.7638 27.5591 23.6868 27.5591 26.059C27.5591 28.4311 29.4486 30.3541 31.7795 30.3541Z" fill="#EB614B"/>
<path d="M26.914 20.5736C29.2404 20.5736 31.1263 18.6544 31.1263 16.2868C31.1263 13.9193 29.2404 12 26.914 12C24.5877 12 22.7018 13.9193 22.7018 16.2868C22.7018 18.6544 24.5877 20.5736 26.914 20.5736Z" fill="#EB614B"/>
<path d="M21.0714 35.9982C23.4079 35.9982 25.3021 34.0706 25.3021 31.6927C25.3021 29.3148 23.4079 27.3871 21.0714 27.3871C18.7348 27.3871 16.8407 29.3148 16.8407 31.6927C16.8407 34.0706 18.7348 35.9982 21.0714 35.9982Z" fill="#EB614B"/>
</svg>
